<svg xmlns="http://www.w3.org/2000/svg" viewBox="0 0 433.33 433.34"><title>AgriLogo</title><path d="M290.71,153.69l-2.09-2v0c-3.57-3.15-11.67-9.35-20-9.35h-6v21.1a1.27,1.27,0,0,1,0,.2c.25,7.65,3.3,32.61,32.37,32.62h7.79v-5.5C302.84,190.54,303.67,165.69,290.71,153.69Zm42.1-30.17c-17.17,0-21.76,14-21.76,22.22v12.69h5.12c8,0,13.89-1.94,17.6-5.78a16.34,16.34,0,0,0,4.34-10.52l0-18.61Zm0,0c-17.17,0-21.76,14-21.76,22.22v12.69h5.12c8,0,13.89-1.94,17.6-5.78a16.34,16.34,0,0,0,4.34-10.52l0-18.61Zm-42.1,30.17-2.09-2v0c-3.57-3.15-11.67-9.35-20-9.35h-6v21.1a1.27,1.27,0,0,1,0,.2c.25,7.65,3.3,32.61,32.37,32.62h7.79v-5.5C302.84,190.54,303.67,165.69,290.71,153.69Zm0,0-2.09-2v0c-3.57-3.15-11.67-9.35-20-9.35h-6v21.1a1.27,1.27,0,0,1,0,.2c.25,7.65,3.3,32.61,32.37,32.62h7.79v-5.5C302.84,190.54,303.67,165.69,290.71,153.69Zm42.1-30.17c-17.17,0-21.76,14-21.76,22.22v12.69h5.12c8,0,13.89-1.94,17.6-5.78a16.34,16.34,0,0,0,4.34-10.52l0-18.61Zm0,0c-17.17,0-21.76,14-21.76,22.22v12.69h5.12c8,0,13.89-1.94,17.6-5.78a16.34,16.34,0,0,0,4.34-10.52l0-18.61Zm-42.1,30.17-2.09-2v0c-3.57-3.15-11.67-9.35-20-9.35h-6v21.1a1.27,1.27,0,0,1,0,.2c.25,7.65,3.3,32.61,32.37,32.62h7.79v-5.5C302.84,190.54,303.67,165.69,290.71,153.69Zm0,0-2.09-2v0c-3.57-3.15-11.67-9.35-20-9.35h-6v21.1a1.27,1.27,0,0,1,0,.2c.25,7.65,3.3,32.61,32.37,32.62h7.79v-5.5C302.84,190.54,303.67,165.69,290.71,153.69Zm42.1-30.17c-17.17,0-21.76,14-21.76,22.22v12.69h5.12c8,0,13.89-1.94,17.6-5.78a16.34,16.34,0,0,0,4.34-10.52l0-18.61Zm0,0c-17.17,0-21.76,14-21.76,22.22v12.69h5.12c8,0,13.89-1.94,17.6-5.78a16.34,16.34,0,0,0,4.34-10.52l0-18.61Zm-42.1,30.17-2.09-2v0c-3.57-3.15-11.67-9.35-20-9.35h-6v21.1a1.27,1.27,0,0,1,0,.2c.25,7.65,3.3,32.61,32.37,32.62h7.79v-5.5C302.84,190.54,303.67,165.69,290.71,153.69ZM216.67,0C97,0,0,97,0,216.67S97,433.34,216.67,433.34s216.66-97,216.66-216.67S336.33,0,216.67,0ZM104.74,249.77H96.26v-25.1A18.65,18.65,0,1,0,87,240.8l4.5,7.19a27.12,27.12,0,1,1,13.27-23.32Zm38.61,21.55c-14.21,0-21.93-8.28-24.39-15.69h10a15.82,15.82,0,0,0,5.61,5.77,17.17,17.17,0,0,0,9.14,2.82A17.64,17.64,0,0,0,161.41,249l.27-.18-.21-.32a21.11,21.11,0,0,0,.13-2.41l0-21.7a18.63,18.63,0,1,0-9.29,16.14l4.5,7.18a27.12,27.12,0,1,1,13.26-23.31l0,19.92c0,7.91-1.75,13.3-5.86,18C159.47,267.86,151.45,271.32,143.35,271.32Zm33.66,9.1a8.26,8.26,0,0,0,7.71-4.89H189a12.69,12.69,0,1,1,0-7.49h-4.31A8.11,8.11,0,0,0,177,263h-.2a8,8,0,0,0-5.9,2.43,9,9,0,0,0-2.41,6.29A8.43,8.43,0,0,0,177,280.42Zm13.46-30.52H182V224.34a27.2,27.2,0,0,1,26.21-27.09v8.48a18.74,18.74,0,0,0-17.74,18.61Zm7.13,33.67h-4.18V259.23h4.18Zm18.11-20.21a8.59,8.59,0,0,0-8.19,8.54v11.85h-4V271.9a12.62,12.62,0,0,1,12.21-12.57Zm38.83-129.1h14.13c6.21,0,12.78,2.32,19.54,6.9a58.3,58.3,0,0,1,5.9,4.58,29.82,29.82,0,0,1,2.26,2.14,37.32,37.32,0,0,1,6.58,8.36v-10.5c0-14.61,9.34-30.33,29.86-30.33h13.44l0,26.43V143a24.92,24.92,0,0,1-4.3,12.46,22,22,0,0,1-1.93,2.39,51.37,51.37,0,0,1,9.28,10.61l.05,0a51.61,51.61,0,0,1-84.09,59.74l.06,0a51.51,51.51,0,0,1-10.45-31.24l8,0a43.39,43.39,0,1,0,70.56-34.07,32.86,32.86,0,0,1-11.23,3.34,34.26,34.26,0,0,1-.86,61.34l-.24.11-1,.44a33.74,33.74,0,0,1-35.44-4.92,34.44,34.44,0,0,1-5.32-5.47l6.35-4.92A26.18,26.18,0,1,0,311,170.88v38.94h-8.1l-.14,0,0-5.38-7.81,0c-20.39,0-30.27-10.43-35-19.19a49.49,49.49,0,0,1-5.51-21.27V142.37h0Zm-37.82,63.13h8.69v52.46h-8.69Zm13.26,83a8.24,8.24,0,0,0,7.7-4.89H242a12.67,12.67,0,1,1,0-7.49h-4.31A8.11,8.11,0,0,0,230,263h-.19a7.93,7.93,0,0,0-5.9,2.43,9.06,9.06,0,0,0-2.42,6.29A8.43,8.43,0,0,0,230,280.42Zm20.77,3.15h-4.18V253.42h4.18Zm29.62-10.63H259.6l.11.91a8.13,8.13,0,0,0,8.31,6.93,7.77,7.77,0,0,0,7.12-4.07l4.33,0a12.92,12.92,0,0,1-4.68,5.6,12.08,12.08,0,0,1-6.77,2,12.6,12.6,0,1,1,8.74-21.7A12.78,12.78,0,0,1,280.37,272.94Zm42-10.1a70.08,70.08,0,0,1-7.85,1.61,68.24,68.24,0,0,1-76.56-58,69,69,0,0,1-.66-9.49h8.09a59.29,59.29,0,0,0,.53,7.73A60.21,60.21,0,0,0,354.3,232H364A67.91,67.91,0,0,1,322.42,262.84Zm11.35-110.19a16.34,16.34,0,0,0,4.34-10.52l0-18.61h-5.32c-17.17,0-21.76,14-21.76,22.22v12.69h5.12C324.13,158.43,330.06,156.49,333.77,152.65ZM295,196.29h7.79v-5.5c0-.25.84-25.1-12.12-37.1l-2.09-2v0c-3.57-3.15-11.67-9.35-20-9.35h-6v21.1a1.27,1.27,0,0,1,0,.2C262.92,171.32,266,196.28,295,196.29Zm-26.9,66.32H268a8,8,0,0,0-8.16,6.22l-.17.95h16.65l-.19-1A8.07,8.07,0,0,0,268.14,262.61Zm22.57-108.92-2.09-2v0c-3.57-3.15-11.67-9.35-20-9.35h-6v21.1a1.27,1.27,0,0,1,0,.2c.25,7.65,3.3,32.61,32.37,32.62h7.79v-5.5C302.84,190.54,303.67,165.69,290.71,153.69Zm42.1-30.17c-17.17,0-21.76,14-21.76,22.22v12.69h5.12c8,0,13.89-1.94,17.6-5.78a16.34,16.34,0,0,0,4.34-10.52l0-18.61Zm0,0c-17.17,0-21.76,14-21.76,22.22v12.69h5.12c8,0,13.89-1.94,17.6-5.78a16.34,16.34,0,0,0,4.34-10.52l0-18.61Zm-42.1,30.17-2.09-2v0c-3.57-3.15-11.67-9.35-20-9.35h-6v21.1a1.27,1.27,0,0,1,0,.2c.25,7.65,3.3,32.61,32.37,32.62h7.79v-5.5C302.84,190.54,303.67,165.69,290.71,153.69Zm0,0-2.09-2v0c-3.57-3.15-11.67-9.35-20-9.35h-6v21.1a1.27,1.27,0,0,1,0,.2c.25,7.65,3.3,32.61,32.37,32.62h7.79v-5.5C302.84,190.54,303.67,165.69,290.71,153.69Zm42.1-30.17c-17.17,0-21.76,14-21.76,22.22v12.69h5.12c8,0,13.89-1.94,17.6-5.78a16.34,16.34,0,0,0,4.34-10.52l0-18.61Zm0,0c-17.17,0-21.76,14-21.76,22.22v12.69h5.12c8,0,13.89-1.94,17.6-5.78a16.34,16.34,0,0,0,4.34-10.52l0-18.61Zm-42.1,30.17-2.09-2v0c-3.57-3.15-11.67-9.35-20-9.35h-6v21.1a1.27,1.27,0,0,1,0,.2c.25,7.65,3.3,32.61,32.37,32.62h7.79v-5.5C302.84,190.54,303.67,165.69,290.71,153.69Zm0,0-2.09-2v0c-3.57-3.15-11.67-9.35-20-9.35h-6v21.1a1.27,1.27,0,0,1,0,.2c.25,7.65,3.3,32.61,32.37,32.62h7.79v-5.5C302.84,190.54,303.67,165.69,290.71,153.69Zm42.1-30.17c-17.17,0-21.76,14-21.76,22.22v12.69h5.12c8,0,13.89-1.94,17.6-5.78a16.34,16.34,0,0,0,4.34-10.52l0-18.61Zm0,0c-17.17,0-21.76,14-21.76,22.22v12.69h5.12c8,0,13.89-1.94,17.6-5.78a16.34,16.34,0,0,0,4.34-10.52l0-18.61Zm-42.1,30.17-2.09-2v0c-3.57-3.15-11.67-9.35-20-9.35h-6v21.1a1.27,1.27,0,0,1,0,.2c.25,7.65,3.3,32.61,32.37,32.62h7.79v-5.5C302.84,190.54,303.67,165.69,290.71,153.69Z" style="fill:#fff"/></svg>