<svg xmlns="http://www.w3.org/2000/svg" xmlns:xlink="http://www.w3.org/1999/xlink" width="608" height="93" viewBox="0 0 608 93">
  <defs>
    <polygon id="ckic_eu_flag_black_right-a" points=".06 .206 446.292 .206 446.292 30.603 .06 30.603"/>
  </defs>
  <g fill="none" fill-rule="evenodd">
    <g transform="translate(0 56)">
      <mask id="ckic_eu_flag_black_right-b" fill="#fff">
        <use xlink:href="#ckic_eu_flag_black_right-a"/>
      </mask>
      <path fill="#FFF" d="M435.956,23.499 L435.956,10.507 C435.956,10.507 438.165,9.321 440.469,9.321 C443.448,9.321 443.927,10.89 443.927,15.114 L443.927,23.499 L446.292,23.499 L446.292,15.05 C446.292,9.355 445.301,7.183 440.885,7.183 C438.516,7.183 435.923,8.62 435.923,8.62 L435.923,7.503 L433.559,7.503 L433.559,23.499 L435.956,23.499 Z M422.805,21.741 C419.028,21.741 418.419,19.853 418.419,15.308 C418.419,10.858 419.412,9.259 422.805,9.259 C426.231,9.259 427.192,10.858 427.192,15.308 C427.192,19.853 426.616,21.741 422.805,21.741 Z M422.805,7.183 C417.749,7.183 415.959,9.802 415.959,15.308 C415.959,21.134 417.428,23.817 422.805,23.817 C428.213,23.817 429.652,21.134 429.652,15.308 C429.652,9.802 427.894,7.183 422.805,7.183 Z M409.656,3.882 L412.051,3.882 L412.051,1.103 L409.656,1.103 L409.656,3.882 Z M409.656,23.499 L412.051,23.499 L412.051,7.503 L409.656,7.503 L409.656,23.499 Z M394.868,23.499 L394.868,10.507 C394.868,10.507 397.078,9.321 399.382,9.321 C402.36,9.321 402.839,10.89 402.839,15.114 L402.839,23.499 L405.204,23.499 L405.204,15.05 C405.204,9.355 404.213,7.183 399.798,7.183 C397.429,7.183 394.836,8.62 394.836,8.62 L394.836,7.503 L392.471,7.503 L392.471,23.499 L394.868,23.499 Z M374.581,16.847 L374.581,1.358 L372.121,1.358 L372.121,16.782 C372.121,21.87 374.901,23.817 379.766,23.817 C384.824,23.817 387.605,21.837 387.605,16.782 L387.605,1.358 L385.176,1.358 L385.176,16.847 C385.176,20.302 383.223,21.646 379.766,21.646 C376.5,21.646 374.581,20.302 374.581,16.847 Z M350.037,23.499 L350.037,10.507 C350.037,10.507 352.247,9.321 354.551,9.321 C357.529,9.321 358.008,10.89 358.008,15.114 L358.008,23.499 L360.373,23.499 L360.373,15.05 C360.373,9.355 359.382,7.183 354.967,7.183 C352.598,7.183 350.004,8.62 350.004,8.62 L350.004,7.503 L347.64,7.503 L347.64,23.499 L350.037,23.499 Z M340.505,15.526 L340.505,20.813 C340.505,20.813 337.847,21.806 335.478,21.806 C333.845,21.806 333.045,20.718 333.045,18.858 C333.045,17.097 333.814,16.167 335.766,15.976 L340.505,15.526 Z M342.902,12.325 C342.902,8.843 341.368,7.183 337.751,7.183 C334.999,7.183 331.48,7.884 331.48,7.884 L331.576,9.706 C331.576,9.706 335.382,9.29 337.624,9.29 C339.544,9.29 340.505,10.089 340.505,12.325 L340.505,13.698 L335.478,14.179 C332.182,14.499 330.585,15.847 330.585,18.923 C330.585,22.157 332.182,23.817 335.094,23.817 C337.975,23.817 340.857,22.54 340.857,22.54 C341.815,23.499 342.965,23.817 344.662,23.817 L344.757,21.935 C343.734,21.806 342.965,21.454 342.902,20.524 L342.902,12.325 Z M317.141,14.573 C317.173,10.7 318.71,9.194 321.431,9.194 C324.249,9.194 325.465,10.603 325.465,14.573 L317.141,14.573 Z M321.368,21.71 C318.231,21.71 317.173,19.917 317.173,16.489 L327.734,16.489 L327.862,14.671 C327.862,9.419 325.69,7.183 321.431,7.183 C317.366,7.183 314.746,9.515 314.746,15.597 C314.746,21.038 316.31,23.817 321.08,23.817 C323.672,23.817 327.319,23.308 327.319,23.308 L327.254,21.421 C327.254,21.421 323.768,21.71 321.368,21.71 Z M305.399,9.321 C307.737,9.321 309.114,10.923 309.114,15.308 C309.114,19.917 307.961,21.741 304.439,21.741 C303.063,21.741 301.397,21.454 300.981,21.39 L300.981,10.603 C300.981,10.603 303.223,9.321 305.399,9.321 Z M298.585,30.603 L300.981,30.603 L300.981,23.466 C301.43,23.563 303.063,23.817 304.567,23.817 C309.498,23.817 311.542,21.583 311.542,15.308 C311.542,9.642 309.785,7.183 305.752,7.183 C303.382,7.183 300.95,8.651 300.95,8.651 L300.95,7.503 L298.585,7.503 L298.585,30.603 Z M287.832,21.741 C284.055,21.741 283.445,19.853 283.445,15.308 C283.445,10.858 284.438,9.259 287.832,9.259 C291.257,9.259 292.217,10.858 292.217,15.308 C292.217,19.853 291.642,21.741 287.832,21.741 Z M287.832,7.183 C282.774,7.183 280.985,9.802 280.985,15.308 C280.985,21.134 282.456,23.817 287.832,23.817 C293.241,23.817 294.678,21.134 294.678,15.308 C294.678,9.802 292.92,7.183 287.832,7.183 Z M270.938,23.499 L273.333,23.499 L273.333,11.755 C273.333,11.755 276.149,10.187 279.158,9.579 L279.158,7.15 C276.085,7.757 273.301,9.675 273.301,9.675 L273.301,7.503 L270.938,7.503 L270.938,23.499 Z M263.931,7.503 L263.931,20.493 C263.931,20.493 261.914,21.679 259.543,21.679 C256.566,21.679 256.183,20.237 256.183,15.821 L256.183,7.503 L253.787,7.503 L253.787,15.854 C253.787,21.741 254.712,23.817 259.191,23.817 C261.528,23.817 263.931,22.38 263.931,22.38 L263.931,23.499 L266.327,23.499 L266.327,7.503 L263.931,7.503 Z M236.922,23.499 L250.391,23.499 L250.391,21.325 L239.382,21.325 L239.382,13.321 L248.471,13.321 L248.471,11.183 L239.382,11.183 L239.382,3.53 L250.391,3.53 L250.391,1.358 L236.922,1.358 L236.922,23.499 Z M214.999,14.573 C215.031,10.7 216.567,9.194 219.29,9.194 C222.106,9.194 223.323,10.603 223.323,14.573 L214.999,14.573 Z M219.225,21.71 C216.087,21.71 215.031,19.917 215.031,16.489 L225.591,16.489 L225.718,14.671 C225.718,9.419 223.546,7.183 219.29,7.183 C215.224,7.183 212.603,9.515 212.603,15.597 C212.603,21.038 214.168,23.817 218.937,23.817 C221.531,23.817 225.175,23.308 225.175,23.308 L225.111,21.421 C225.111,21.421 221.626,21.71 219.225,21.71 Z M198.52,23.499 L198.52,10.282 C198.52,10.282 200.76,9.321 203.034,9.321 C205.979,9.321 206.459,10.89 206.459,15.114 L206.459,23.499 L208.855,23.499 L208.855,15.05 C208.855,9.355 207.833,7.183 203.45,7.183 C201.081,7.183 198.52,8.396 198.52,8.396 L198.52,0.526 L196.124,0.526 L196.124,23.499 L198.52,23.499 Z M193.175,9.577 L193.175,7.503 L188.087,7.503 L188.087,2.606 L185.724,2.606 L185.724,7.503 L183.452,7.503 L183.452,9.577 L185.724,9.577 L185.724,17.997 C185.724,22.604 186.841,23.851 190.135,23.851 C191.255,23.851 193.399,23.499 193.399,23.499 L193.24,21.519 C193.24,21.519 191.288,21.71 190.392,21.71 C188.312,21.71 188.087,20.718 188.087,17.23 L188.087,9.577 L193.175,9.577 Z M170.329,9.577 L174.968,9.577 L174.968,7.503 L170.329,7.503 L170.329,6.093 C170.329,3.114 170.905,2.347 172.697,2.347 C173.657,2.347 175.449,2.409 175.449,2.409 L175.48,0.431 C175.48,0.429 173.336,0.206 172.249,0.206 C169.115,0.206 167.933,1.452 167.933,6.062 L167.933,7.503 L165.917,7.503 L165.917,9.577 L167.933,9.577 L167.933,23.499 L170.329,23.499 L170.329,9.577 Z M156.506,21.741 C152.729,21.741 152.121,19.853 152.121,15.308 C152.121,10.858 153.112,9.259 156.506,9.259 C159.932,9.259 160.893,10.858 160.893,15.308 C160.893,19.853 160.315,21.741 156.506,21.741 Z M156.506,7.183 C151.45,7.183 149.661,9.802 149.661,15.308 C149.661,21.134 151.129,23.817 156.506,23.817 C161.915,23.817 163.353,21.134 163.353,15.308 C163.353,9.802 161.595,7.183 156.506,7.183 Z M126.365,7.503 L130.908,23.499 L133.274,23.499 L131.195,30.603 L133.595,30.603 L140.249,7.503 L137.85,7.503 L133.818,21.423 L132.764,21.423 L128.765,7.503 L126.365,7.503 Z M116.283,21.679 C114.395,21.679 112.698,20.813 112.698,15.628 C112.698,11.468 113.689,9.259 117.052,9.259 C118.363,9.259 120.349,9.546 120.861,9.642 L120.861,20.493 C120.861,20.493 118.557,21.679 116.283,21.679 Z M123.226,0.526 L120.861,0.526 L120.861,7.597 C120.38,7.501 118.299,7.183 116.923,7.183 C112.059,7.183 110.237,9.995 110.237,15.628 C110.237,22.54 112.857,23.817 115.995,23.817 C118.396,23.817 120.861,22.413 120.861,22.413 L120.861,23.499 L123.226,23.499 L123.226,0.526 Z M100.188,21.741 C96.41,21.741 95.801,19.853 95.801,15.308 C95.801,10.858 96.794,9.259 100.188,9.259 C103.612,9.259 104.574,10.858 104.574,15.308 C104.574,19.853 103.997,21.741 100.188,21.741 Z M100.188,7.183 C95.13,7.183 93.341,9.802 93.341,15.308 C93.341,21.134 94.811,23.817 100.188,23.817 C105.596,23.817 107.034,21.134 107.034,15.308 C107.034,9.802 105.276,7.183 100.188,7.183 Z M82.523,21.679 C81.659,21.679 79.578,21.519 79.578,21.519 L79.578,10.251 C79.578,10.251 81.819,9.321 84.028,9.321 C86.845,9.321 87.678,11.114 87.678,15.243 C87.678,19.726 86.909,21.679 82.523,21.679 Z M84.284,7.183 C82.011,7.183 79.578,8.3 79.578,8.3 L79.578,0.526 L77.214,0.526 L77.214,23.466 C77.214,23.466 80.634,23.817 82.555,23.817 C88.38,23.817 90.106,21.614 90.106,15.243 C90.106,9.481 88.636,7.183 84.284,7.183 Z M63.039,15.526 L63.039,20.813 C63.039,20.813 60.381,21.806 58.012,21.806 C56.379,21.806 55.579,20.718 55.579,18.858 C55.579,17.097 56.347,16.167 58.3,15.976 L63.039,15.526 Z M65.435,12.325 C65.435,8.843 63.901,7.183 60.285,7.183 C57.531,7.183 54.013,7.884 54.013,7.884 L54.109,9.706 C54.109,9.706 57.916,9.29 60.157,9.29 C62.078,9.29 63.039,10.089 63.039,12.325 L63.039,13.698 L58.012,14.179 C54.716,14.499 53.119,15.847 53.119,18.923 C53.119,22.157 54.716,23.817 57.627,23.817 C60.509,23.817 63.39,22.54 63.39,22.54 C64.348,23.499 65.499,23.817 67.194,23.817 L67.291,21.935 C66.267,21.806 65.499,21.454 65.435,20.524 L65.435,12.325 Z M38.751,27.435 L40.733,27.435 L42.875,20.079 L40.222,20.079 L38.751,27.435 Z M23.263,3.562 L30.079,3.562 L30.079,23.499 L32.507,23.499 L32.507,3.562 L39.259,3.562 L39.259,1.358 L23.263,1.358 L23.263,3.562 Z M17.696,23.499 L20.156,23.499 L20.156,1.354 L17.696,1.354 L17.696,23.499 Z M0,23.499 L13.468,23.499 L13.468,21.325 L2.46,21.325 L2.46,13.321 L11.548,13.321 L11.548,11.183 L2.46,11.183 L2.46,3.53 L13.468,3.53 L13.468,1.358 L0,1.358 L0,23.499 L0,23.499 Z" mask="url(#ckic_eu_flag_black_right-b)"/>
    </g>
    <path fill="#FFF" d="M436.276,26.574 C436.307,22.699 437.844,21.194 440.566,21.194 C443.382,21.194 444.599,22.603 444.599,26.574 L436.276,26.574 Z M440.501,33.71 C437.364,33.71 436.307,31.917 436.307,28.49 L446.868,28.49 L446.996,26.67 C446.996,21.419 444.823,19.182 440.566,19.182 C436.5,19.182 433.879,21.514 433.879,27.596 C433.879,33.038 435.445,35.818 440.213,35.818 C442.806,35.818 446.453,35.307 446.453,35.307 L446.388,33.422 C446.388,33.422 442.903,33.71 440.501,33.71 Z M419.795,35.498 L419.795,22.282 C419.795,22.282 422.037,21.322 424.309,21.322 C427.255,21.322 427.736,22.89 427.736,27.114 L427.736,35.498 L430.131,35.498 L430.131,27.05 C430.131,21.354 429.11,19.182 424.726,19.182 C422.357,19.182 419.795,20.396 419.795,20.396 L419.795,12.526 L417.4,12.526 L417.4,35.498 L419.795,35.498 Z M414.452,21.578 L414.452,19.502 L409.364,19.502 L409.364,14.606 L407,14.606 L407,19.502 L404.728,19.502 L404.728,21.578 L407,21.578 L407,29.997 C407,34.604 408.118,35.85 411.412,35.85 C412.532,35.85 414.675,35.499 414.675,35.499 L414.515,33.518 C414.515,33.518 412.564,33.71 411.667,33.71 C409.587,33.71 409.364,32.718 409.364,29.229 L409.364,21.578 L414.452,21.578 Z M382.168,19.502 L386.711,35.498 L389.079,35.498 L387,42.602 L389.399,42.602 L396.052,19.502 L393.654,19.502 L389.623,33.422 L388.567,33.422 L384.568,19.502 L382.168,19.502 Z M372.439,33.678 C371.574,33.678 369.493,33.518 369.493,33.518 L369.493,22.25 C369.493,22.25 371.734,21.322 373.943,21.322 C376.76,21.322 377.592,23.115 377.592,27.244 C377.592,31.726 376.825,33.678 372.439,33.678 Z M374.199,19.182 C371.925,19.182 369.493,20.3 369.493,20.3 L369.493,12.526 L367.128,12.526 L367.128,35.466 C367.128,35.466 370.549,35.818 372.47,35.818 C378.295,35.818 380.021,33.614 380.021,27.244 C380.021,21.482 378.551,19.182 374.199,19.182 Z M348.503,33.678 C346.615,33.678 344.917,32.814 344.917,27.628 C344.917,23.467 345.91,21.258 349.272,21.258 C350.584,21.258 352.57,21.546 353.082,21.642 L353.082,32.494 C353.082,32.494 350.777,33.678 348.503,33.678 Z M355.446,12.526 L353.082,12.526 L353.082,19.597 C352.601,19.501 350.521,19.182 349.143,19.182 C344.279,19.182 342.458,21.994 342.458,27.628 C342.458,34.541 345.078,35.818 348.215,35.818 C350.617,35.818 353.082,34.413 353.082,34.413 L353.082,35.498 L355.446,35.498 L355.446,12.526 Z M328.694,26.574 C328.725,22.699 330.262,21.194 332.984,21.194 C335.801,21.194 337.017,22.603 337.017,26.574 L328.694,26.574 Z M332.919,33.71 C329.783,33.71 328.725,31.917 328.725,28.49 L339.286,28.49 L339.414,26.67 C339.414,21.419 337.242,19.182 332.984,19.182 C328.917,19.182 326.297,21.514 326.297,27.596 C326.297,33.038 327.864,35.818 332.631,35.818 C335.224,35.818 338.871,35.307 338.871,35.307 L338.806,33.422 C338.806,33.422 335.321,33.71 332.919,33.71 Z M324.053,21.578 L324.053,19.502 L318.965,19.502 L318.965,14.606 L316.601,14.606 L316.601,19.502 L314.33,19.502 L314.33,21.578 L316.601,21.578 L316.601,29.997 C316.601,34.604 317.719,35.85 321.013,35.85 C322.133,35.85 324.278,35.499 324.278,35.499 L324.118,33.518 C324.118,33.518 322.166,33.71 321.269,33.71 C319.19,33.71 318.965,32.718 318.965,29.229 L318.965,21.578 L324.053,21.578 Z M304.699,35.498 L307.095,35.498 L307.095,23.754 C307.095,23.754 309.911,22.186 312.918,21.578 L312.918,19.15 C309.847,19.758 307.063,21.674 307.063,21.674 L307.063,19.502 L304.699,19.502 L304.699,35.498 Z M293.944,33.742 C290.167,33.742 289.559,31.854 289.559,27.308 C289.559,22.859 290.55,21.258 293.944,21.258 C297.37,21.258 298.331,22.859 298.331,27.308 C298.331,31.854 297.753,33.742 293.944,33.742 Z M293.944,19.182 C288.888,19.182 287.099,21.802 287.099,27.308 C287.099,33.134 288.567,35.818 293.944,35.818 C299.353,35.818 300.791,33.134 300.791,27.308 C300.791,21.802 299.033,19.182 293.944,19.182 Z M277.752,21.322 C280.089,21.322 281.466,22.922 281.466,27.308 C281.466,31.917 280.313,33.742 276.792,33.742 C275.416,33.742 273.75,33.454 273.334,33.39 L273.334,22.603 C273.334,22.603 275.576,21.322 277.752,21.322 Z M270.938,42.602 L273.334,42.602 L273.334,35.467 C273.783,35.562 275.416,35.818 276.92,35.818 C281.85,35.818 283.895,33.582 283.895,27.308 C283.895,21.642 282.138,19.182 278.104,19.182 C275.735,19.182 273.303,20.651 273.303,20.651 L273.303,19.502 L270.938,19.502 L270.938,42.602 Z M260.889,21.322 C263.226,21.322 264.603,22.922 264.603,27.308 C264.603,31.917 263.45,33.742 259.929,33.742 C258.551,33.742 256.887,33.454 256.471,33.39 L256.471,22.603 C256.471,22.603 258.711,21.322 260.889,21.322 Z M254.075,42.602 L256.471,42.602 L256.471,35.467 C256.918,35.562 258.551,35.818 260.057,35.818 C264.985,35.818 267.031,33.582 267.031,27.308 C267.031,21.642 265.273,19.182 261.241,19.182 C258.872,19.182 256.438,20.651 256.438,20.651 L256.438,19.502 L254.075,19.502 L254.075,42.602 Z M247.066,19.502 L247.066,32.494 C247.066,32.494 245.049,33.678 242.681,33.678 C239.703,33.678 239.318,32.238 239.318,27.822 L239.318,19.502 L236.922,19.502 L236.922,27.854 C236.922,33.742 237.85,35.818 242.329,35.818 C244.666,35.818 247.066,34.381 247.066,34.381 L247.066,35.498 L249.462,35.498 L249.462,19.502 L247.066,19.502 Z M232.888,19.79 C232.888,19.789 229.499,19.182 227.097,19.182 C224.184,19.182 221.338,20.332 221.338,23.851 C221.338,27.052 223.064,27.724 226.681,28.3 C230.17,28.844 231.002,29.261 231.002,30.925 C231.002,33.102 229.595,33.678 226.968,33.678 C225.335,33.678 221.69,33.134 221.69,33.134 L221.563,35.21 C221.563,35.212 225.144,35.818 227.192,35.818 C231.035,35.818 233.398,34.572 233.398,30.829 C233.398,27.724 231.897,26.924 227.897,26.251 C224.503,25.675 223.734,25.259 223.734,23.755 C223.734,21.866 225.24,21.322 227.225,21.322 C229.273,21.322 232.824,21.835 232.824,21.835 L232.888,19.79 Z M210.968,19.79 C210.968,19.789 207.579,19.182 205.178,19.182 C202.264,19.182 199.419,20.332 199.419,23.851 C199.419,27.052 201.145,27.724 204.762,28.3 C208.251,28.844 209.083,29.261 209.083,30.925 C209.083,33.102 207.674,33.678 205.049,33.678 C203.417,33.678 199.771,33.134 199.771,33.134 L199.644,35.21 C199.644,35.212 203.225,35.818 205.273,35.818 C209.116,35.818 211.479,34.572 211.479,30.829 C211.479,27.724 209.978,26.924 205.978,26.251 C202.583,25.675 201.815,25.259 201.815,23.755 C201.815,21.866 203.32,21.322 205.306,21.322 C207.354,21.322 210.905,21.835 210.905,21.835 L210.968,19.79 Z M193.275,15.882 L195.671,15.882 L195.671,13.102 L193.275,13.102 L193.275,15.882 Z M193.275,35.498 L195.671,35.498 L195.671,19.502 L193.275,19.502 L193.275,35.498 Z M182.521,33.038 C180.984,33.326 178.617,33.614 176.825,33.614 C171.769,33.614 170.968,30.669 170.968,24.492 C170.968,18.187 171.833,15.242 176.76,15.242 C178.489,15.242 181.081,15.562 182.521,15.818 L182.617,13.741 C181.208,13.453 178.776,13.038 176.504,13.038 C169.851,13.038 168.413,17.003 168.413,24.492 C168.413,31.79 169.882,35.818 176.504,35.818 C178.617,35.818 181.048,35.467 182.617,35.147 L182.521,33.038 Z M161.373,35.498 L163.833,35.498 L163.833,13.354 L161.373,13.354 L161.373,35.498 Z M155.193,35.498 L158.105,35.498 L151.417,24.493 L157.753,13.358 L154.938,13.358 L149.273,23.534 L145.625,23.662 L145.625,13.358 L143.166,13.358 L143.166,35.498 L145.625,35.498 L145.625,25.834 L149.306,25.706 L155.193,35.498 Z M128.605,27.818 L138.297,27.818 L138.297,25.582 L128.605,25.582 L128.605,27.818 Z M114.267,26.574 C114.298,22.699 115.834,21.194 118.557,21.194 C121.374,21.194 122.59,22.603 122.59,26.574 L114.267,26.574 Z M118.493,33.71 C115.354,33.71 114.298,31.917 114.298,28.49 L124.858,28.49 L124.986,26.67 C124.986,21.419 122.813,19.182 118.557,19.182 C114.491,19.182 111.871,21.514 111.871,27.596 C111.871,33.038 113.436,35.818 118.204,35.818 C120.797,35.818 124.442,35.307 124.442,35.307 L124.379,33.422 C124.379,33.422 120.894,33.71 118.493,33.71 Z M109.626,21.578 L109.626,19.502 L104.539,19.502 L104.539,14.606 L102.174,14.606 L102.174,19.502 L99.902,19.502 L99.902,21.578 L102.174,21.578 L102.174,29.997 C102.174,34.604 103.292,35.85 106.586,35.85 C107.707,35.85 109.851,35.499 109.851,35.499 L109.69,33.518 C109.69,33.518 107.738,33.71 106.842,33.71 C104.763,33.71 104.539,32.718 104.539,29.229 L104.539,21.578 L109.626,21.578 Z M94.207,27.526 L94.207,32.813 C94.207,32.813 91.549,33.806 89.18,33.806 C87.547,33.806 86.746,32.717 86.746,30.858 C86.746,29.097 87.515,28.167 89.468,27.975 L94.207,27.526 Z M96.603,24.324 C96.603,20.843 95.069,19.182 91.453,19.182 C88.699,19.182 85.181,19.885 85.181,19.885 L85.277,21.706 C85.277,21.706 89.084,21.29 91.325,21.29 C93.246,21.29 94.207,22.088 94.207,24.324 L94.207,25.698 L89.18,26.178 C85.884,26.499 84.286,27.847 84.286,30.923 C84.286,34.157 85.884,35.818 88.795,35.818 C91.677,35.818 94.558,34.541 94.558,34.541 C95.516,35.499 96.667,35.818 98.362,35.818 L98.459,33.934 C97.434,33.806 96.667,33.454 96.603,32.524 L96.603,24.324 Z M60.955,35.498 L60.955,22.506 C60.955,22.506 62.971,21.322 65.245,21.322 C68.158,21.322 68.606,22.826 68.606,27.242 L68.606,35.498 L71.002,35.498 L71.002,27.178 C71.002,25.258 70.875,23.242 70.587,22.506 C70.587,22.506 72.731,21.322 75.101,21.322 C77.982,21.322 78.462,22.89 78.462,27.114 L78.462,35.498 L80.858,35.498 L80.858,27.05 C80.858,21.258 79.804,19.182 75.453,19.182 C72.603,19.182 69.756,20.811 69.756,20.811 C68.926,19.661 67.742,19.182 65.597,19.182 C63.324,19.182 60.922,20.62 60.922,20.62 L60.922,19.502 L58.559,19.502 L58.559,35.498 L60.955,35.498 Z M51.551,15.882 L53.947,15.882 L53.947,13.102 L51.551,13.102 L51.551,15.882 Z M51.551,35.498 L53.947,35.498 L53.947,19.502 L51.551,19.502 L51.551,35.498 Z M44.351,35.498 L46.747,35.498 L46.747,12.526 L44.351,12.526 L44.351,35.498 Z M40.443,33.038 C38.907,33.326 36.54,33.614 34.748,33.614 C29.691,33.614 28.891,30.669 28.891,24.492 C28.891,18.187 29.755,15.242 34.683,15.242 C36.411,15.242 39.003,15.562 40.443,15.818 L40.54,13.741 C39.131,13.453 36.699,13.038 34.427,13.038 C27.773,13.038 26.335,17.003 26.335,24.492 C26.335,31.79 27.805,35.818 34.427,35.818 C36.54,35.818 38.971,35.467 40.54,35.147 L40.443,33.038 L40.443,33.038 Z"/>
    <polygon fill="#174489" points="469.543 93 607.873 93 607.873 .581 469.543 .581"/>
    <polyline fill="#FFF101" points="572.87 50.853 569.769 48.526 566.533 50.837 567.788 47.169 564.59 44.806 568.467 44.865 569.727 41.096 570.869 44.799 574.843 44.834 571.673 47.062 572.87 50.853"/>
    <polyline fill="#FFF101" points="568.667 35.174 565.566 32.848 562.33 35.156 563.584 31.49 560.388 29.125 564.263 29.186 565.524 25.414 566.667 29.119 570.641 29.152 567.469 31.382 568.667 35.174"/>
    <polyline fill="#FFF101" points="557.512 23.857 554.412 21.531 551.176 23.841 552.429 20.172 549.234 17.81 553.11 17.869 554.37 14.099 555.511 17.804 559.487 17.837 556.317 20.066 557.512 23.857"/>
    <polyline fill="#FFF101" points="541.833 19.492 538.732 17.167 535.495 19.477 536.749 15.809 533.553 13.445 537.428 13.504 538.69 9.733 539.831 13.438 543.806 13.472 540.636 15.702 541.833 19.492"/>
    <polyline fill="#FFF101" points="526.313 23.695 523.212 21.371 519.977 23.68 521.23 20.012 518.035 17.648 521.91 17.707 523.171 13.937 524.312 17.642 528.288 17.674 525.116 19.906 526.313 23.695"/>
    <polyline fill="#FFF101" points="514.673 35.011 511.573 32.686 508.337 34.996 509.591 31.328 506.395 28.965 510.271 29.022 511.532 25.252 512.673 28.957 516.647 28.992 513.477 31.221 514.673 35.011"/>
    <polyline fill="#FFF101" points="510.471 50.692 507.37 48.365 504.134 50.675 505.388 47.007 502.193 44.645 506.068 44.703 507.329 40.934 508.47 44.639 512.444 44.672 509.274 46.9 510.471 50.692"/>
    <polyline fill="#FFF101" points="514.673 66.696 511.573 64.37 508.337 66.679 509.591 63.011 506.395 60.647 510.271 60.706 511.532 56.937 512.673 60.64 516.647 60.675 513.477 62.903 514.673 66.696"/>
    <polyline fill="#FFF101" points="525.99 78.334 522.888 76.008 519.654 78.317 520.908 74.65 517.711 72.286 521.587 72.346 522.848 68.575 523.989 72.278 527.963 72.313 524.793 74.544 525.99 78.334"/>
    <polyline fill="#FFF101" points="541.67 82.538 538.569 80.212 535.334 82.521 536.588 78.853 533.391 76.489 537.268 76.548 538.528 72.778 539.669 76.483 543.644 76.517 540.474 78.746 541.67 82.538"/>
    <polyline fill="#FFF101" points="557.351 78.334 554.25 76.008 551.014 78.317 552.269 74.65 549.073 72.286 552.949 72.346 554.208 68.575 555.35 72.278 559.325 72.313 556.155 74.544 557.351 78.334"/>
    <polyline fill="#FFF101" points="568.99 66.696 565.889 64.37 562.654 66.679 563.908 63.011 560.711 60.647 564.586 60.706 565.847 56.937 566.988 60.64 570.963 60.675 567.793 62.903 568.99 66.696"/>
  </g>
</svg>
