<svg xmlns="http://www.w3.org/2000/svg" xmlns:xlink="http://www.w3.org/1999/xlink" viewBox="0 0 595.28 841.89"><defs><clipPath id="a"><rect width="595.28" height="841.89" style="fill:none"/></clipPath></defs><title>DTULogo</title><g style="clip-path:url(#a)"><path d="M93.74,327.5h62.13c24.13,0,38.85-5.48,47.78-17,13.18-15.78,13.59-41.23,13.59-80.28v-53.3c0-39-.42-64.51-13.59-80.28-8.93-11.55-23.65-17-47.78-17H93.74a4.79,4.79,0,0,0-5.2,5.22V322.31a4.78,4.78,0,0,0,5.2,5.19m34.21-219h21.92c9.67,0,15.43,1.58,19.93,6.94,6.89,8.27,7.5,25,7.5,58.68V232.9c0,33.7-.61,50.39-7.5,58.67-4.5,5.36-10.26,6.93-19.93,6.93H127.94Z" style="fill:#fff"/><path d="M441.38,330.63c24.41,0,40.14-6.53,49.82-17.78,11.36-13.21,14.16-29,14.16-52.67V84.77a5,5,0,0,0-1.4-3.84,4.94,4.94,0,0,0-3.79-1.38H471.12a5,5,0,0,0-3.82,1.38,5.09,5.09,0,0,0-1.39,3.84V260.12c0,18.3-1.37,29.19-7.33,35.72-4,4.42-9.72,6.59-17.73,6.59-7.23,0-12.75-2-16.94-6.63-5.62-6.2-7.34-16.71-7.34-35.68V84.77a4.79,4.79,0,0,0-5.21-5.22h-29a5.06,5.06,0,0,0-3.84,1.38,5,5,0,0,0-1.36,3.84V260.19c0,25.53,3.46,41.55,13.61,52.69,10.54,11.6,26.47,17.75,50.64,17.75" style="fill:#fff"/><path d="M238.4,110.89h37.31V322.31a4.75,4.75,0,0,0,5.19,5.19h31.76a4.77,4.77,0,0,0,5.2-5.19V110.89h37.31a4.76,4.76,0,0,0,5.21-5.19V84.77a4.77,4.77,0,0,0-5.21-5.22H238.4a5.07,5.07,0,0,0-3.84,1.38,5,5,0,0,0-1.39,3.84V105.7a5,5,0,0,0,1.39,3.82,5,5,0,0,0,3.84,1.37" style="fill:#fff"/><path d="M432.06,503.86l99.6-52.27-99.6-52.31c-129,50.19-139.88,50.19-268.86,0l-99.6,52.31,99.6,52.27c129-50.17,139.85-50.17,268.86,0" style="fill:#fff"/><path d="M163.21,528.52l-99.6,52.3,99.6,52.27c129-50.17,139.85-50.17,268.86,0l99.6-52.27-99.6-52.3c-129,50.18-139.88,50.18-268.86,0" style="fill:#fff"/><path d="M163.21,657.77,63.61,710l99.6,52.29c129-50.17,139.85-50.17,268.86,0L531.67,710l-99.6-52.27c-129,50.17-139.88,50.17-268.86,0" style="fill:#fff"/></g></svg>