<svg xmlns="http://www.w3.org/2000/svg" viewBox="0 0 273.66 149.97"><title>FICLogo</title><path d="M273.63,72.93q0-1-.09-2.1A75,75,0,0,0,123.69,75c0,.25,0,.5,0,.75a75,75,0,0,0,143.37,30c.19-.42.37-.83.55-1.25.1-.2.18-.4.26-.6a77.26,77.26,0,0,0,5-18c.07-.43.13-.87.19-1.31v0c.06-.44.11-.88.16-1.33s.11-1.1.16-1.64.09-1.06.13-1.59.06-.85.07-1.27,0-.78.05-1.17,0-.62,0-.92c0-.57,0-1.13,0-1.69S273.65,73.61,273.63,72.93ZM239.82,108c-.67,7.51-3.33,14.38-11,17s-15.55,2.61-21.73-4c-4.24-4.55-5.09-10.4-5-16.29.35-13.65,4.47-26.49,9.28-39.1a182,182,0,0,1,10.43-23.28A208.67,208.67,0,0,1,234.65,74.7C237.93,85.54,240.84,96.53,239.82,108Z" style="fill:#fff"/><path d="M24.85,142.37H1.51c7.92-1.67,6.92-7.88,6.93-13.56,0-8-.16-16,.09-24,.11-3.61-.75-5.3-4.66-4.86C2.52,100.11,0,101,0,98.36,0,96,2.31,96.81,3.51,97c4,.47,5.46-1.12,5-5.05a35.8,35.8,0,0,1,0-6c.32-6.86,4.4-11.52,11.3-12.54a46.05,46.05,0,0,1,14.43,0c2.85.48,5.52,1.56,5.86,5.14.21,2.28-.54,3.92-2.79,4.68-3.35,1.13-5.78.06-7.57-3s-3.87-5.95-7.84-4.69-4.06,4.85-4.1,8.28c0,.83,0,1.67,0,2.5C17.72,96.5,17.72,96.49,28,96.88c1.21,0,2.94-.64,2.94,1.54S29.24,99.9,28,100c-3.4.38-7.94-1.65-9.9,1-1.58,2.17-.35,6.39-.35,9.71,0,7.33,0,14.67,0,22C17.85,139.05,18.63,140,24.85,142.37Z" style="fill:#fff"/><path d="M82.55,114.21c.1,6.26.12,11.08,2.25,15.6,3.88,8.25,10,11.39,19,9.9,1.28-.21,3.37-1.61,4,.19.77,2.37-1.73,2.27-3.23,2.64-6.76,1.67-13.53,1.87-20-.95-8.82-3.82-13.32-14.26-12.33-26.17,1.64-19.82,16.59-21.65,28.73-18.13a10,10,0,0,1,6.57,5c1.06,2.17,1.34,4.55-.23,6.62s-3.86,1.7-6,1.46c-2.52-.28-3-2.49-3.37-4.39-.72-3.86-1-7.86-6.45-7.68-4.43.15-7.75,3.43-8.46,8.87C82.56,110,82.61,112.82,82.55,114.21Z" style="fill:#fff"/><path d="M64.43,142.42H41.1c2.06-1.48,4.88-1.67,6.07-4.28s.7-5.24.73-7.87c.07-6.82-.16-13.65.09-20.46.21-5.53-.74-10-7.22-11.73,5-.64,10-1.49,15.06-1.84,2.78-.2,1.68,2.4,1.69,3.75.1,10.64.13,21.29,0,31.93C57.49,137,58.16,141.32,64.43,142.42Z" style="fill:#fff"/><path d="M52.89,86.5c-3.74-.42-5.86-2.72-5.73-6.27.12-3.35,2.33-5.54,5.91-5.45s5.72,2.12,5.77,5.6C58.9,84.08,56.57,86.05,52.89,86.5Z" style="fill:#fff"/></svg>