<svg xmlns="http://www.w3.org/2000/svg" viewBox="0 0 147.66 27.59"><title>KULogo</title><path d="M19.94,7.41A7.41,7.41,0,1,1,12.54,0,7.41,7.41,0,0,1,19.94,7.41Z" style="fill:#fff"/><circle cx="3.51" cy="18.23" r="3.51" style="fill:#fff"/><circle cx="12.54" cy="25.75" r="1.84" style="fill:#fff"/><path d="M26.1,6c0-1.31-.09-1.34-.89-1.51l-.26-.06c-.13-.09-.11-.42,0-.47.64,0,1.23.06,1.84.06S28,4,28.75,4c.15.06.17.38,0,.47l-.36.06c-.81.13-.89.21-.89,1.51V8.69c0,1.89.63,3.18,2.46,3.18s2.44-1.29,2.44-3.16V6.95c0-1.89-.11-2.33-.93-2.44l-.4-.06a.32.32,0,0,1,0-.47c.61,0,1,.06,1.59.06s1,0,1.57-.06a.32.32,0,0,1,0,.47l-.57.06c-.49.06-.64.57-.64,2.44V8.82c0,2.42-1.12,3.69-3.52,3.69a3.78,3.78,0,0,1-2.69-.79,3.62,3.62,0,0,1-.81-2.67Z" style="fill:#fff"/><path d="M44.52,6.95c0-1.89-.11-2.39-.81-2.44l-.61-.06a.32.32,0,0,1,0-.47c.7,0,1.14.06,1.69.06s1,0,1.57-.06a.32.32,0,0,1,0,.47l-.57.06c-.49.06-.64.57-.64,2.44v3.18c0,.38,0,1.91.06,2.2a.37.37,0,0,1-.4.17c-.21-.26-.59-.66-1.76-1.93L40.22,7.5C39.5,6.74,39,6.25,38.77,6c-.08,0-.08.21-.08.79v2.5c0,1.89.11,2.39.81,2.44l.61.06a.3.3,0,0,1,0,.47c-.7,0-1.14-.06-1.69-.06s-.91,0-1.57.06a.32.32,0,0,1,0-.47l.57-.06c.49-.06.64-.57.64-2.44V5.95c0-.62,0-.89-.4-1.17a2.23,2.23,0,0,0-.7-.27l-.28-.06a.3.3,0,0,1,0-.47c.72.06,1.23.06,1.63.06A4.71,4.71,0,0,0,39,4a11.19,11.19,0,0,0,1.86,2.33l1.78,1.84c.42.42,1.51,1.61,1.72,1.76.11,0,.11-.3.11-.76Z" style="fill:#fff"/><path d="M50.3,6c0-1.31-.08-1.38-.89-1.51L49,4.45c-.13-.09-.11-.42,0-.47C49.83,4,50.41,4,51,4S52.21,4,53,4c.15.06.17.38,0,.47l-.36.06c-.81.13-.89.21-.89,1.51v4.24c0,1.31.08,1.38.89,1.51l.36.06c.13.09.11.42,0,.47-.72,0-1.34-.06-1.93-.06s-1.19,0-1.93.06c-.15-.06-.17-.38,0-.47l.36-.06c.81-.13.89-.21.89-1.51Z" style="fill:#fff"/><path d="M56.66,6.06c-.57-1.25-.64-1.34-1.1-1.46l-.62-.15A.33.33,0,0,1,55,4c.49,0,1.12.06,1.7.06S57.89,4,58.5,4a.29.29,0,0,1,0,.47l-.4.06c-.49.08-.49.32-.08,1.25L59,7.86c.47,1.08.8,1.78,1.08,2.41.38-.79.7-1.59,1.06-2.39S62,5.7,62.21,5.15c.13-.4.11-.53-.46-.64l-.3-.06a.29.29,0,0,1,0-.47C62,4,62.53,4,63,4A11.58,11.58,0,0,0,64.39,4a.3.3,0,0,1,.09.47L64,4.56c-.57.11-.68.28-1.29,1.57L61.23,9.22c-.57,1.21-1.12,2.59-1.34,3.22a.3.3,0,0,1-.23.08.36.36,0,0,1-.23-.08c-.17-.49-.38-1.1-.62-1.63Z" style="fill:#fff"/><path d="M67.42,6c0-1.31-.08-1.36-.79-1.51l-.27-.06a.32.32,0,0,1,0-.47q.82.06,1.76.06h2.69A16.05,16.05,0,0,0,72.61,4c0,.23.11,1.12.21,1.93a.34.34,0,0,1-.49,0A2.66,2.66,0,0,0,72,5c-.3-.45-1.16-.45-1.61-.45h-.83c-.66,0-.68,0-.68.61v2.1c0,.34,0,.38.36.38h.89c1,0,1.1-.15,1.25-.72l.09-.36a.32.32,0,0,1,.47,0c0,.55,0,.89,0,1.33s0,.81,0,1.36a.32.32,0,0,1-.47,0L71.36,9c-.15-.57-.25-.72-1.25-.72h-.89c-.36,0-.36.06-.36.44v1.36a2.79,2.79,0,0,0,.21,1.36c.17.19.51.27,1.59.27s1.91-.06,2.46-1.57a.32.32,0,0,1,.49.08,7,7,0,0,1-.57,2.1c-1.19,0-2.2-.06-3.22-.06H68.16c-.61,0-1.19,0-2.1.06-.15-.06-.17-.38,0-.47l.51-.06c.81-.09.89-.21.89-1.51Z" style="fill:#fff"/><path d="M77.23,6.25c0-1.23,0-1.55-.45-1.61l-.53-.08c-.15,0-.19-.42,0-.47,1-.08,2.1-.11,3.14-.11,1.76,0,3.67.28,3.67,2.27a2.18,2.18,0,0,1-1.68,2,.23.23,0,0,0,0,.28,11.47,11.47,0,0,0,2.4,3,1.71,1.71,0,0,0,1,.4.23.23,0,0,1,0,.3,2.66,2.66,0,0,1-.8.09A3,3,0,0,1,81.34,11c-.47-.61-1-1.44-1.38-2a.88.88,0,0,0-.76-.3c-.49,0-.53,0-.53.3v1.34c0,1.31.08,1.4.89,1.51l.44.06c.13.09.11.42,0,.47-.79,0-1.42-.06-2-.06s-1.19,0-1.86.06a.28.28,0,0,1,0-.47l.28-.06c.81-.17.89-.21.89-1.51Zm1.44,1.38c0,.47,0,.47.95.47,1.23,0,1.88-.49,1.88-1.8a1.78,1.78,0,0,0-2-1.78c-.7,0-.83,0-.83.53Z" style="fill:#fff"/><path d="M88.63,8.39a2.67,2.67,0,0,1-1.69-2.27c0-1.38,1.06-2.35,3-2.35a9.26,9.26,0,0,1,1.76.28,4.78,4.78,0,0,1,.26,1.86c-.06.15-.4.17-.49,0a1.88,1.88,0,0,0-1.76-1.63c-1.12,0-1.53.64-1.53,1.29s.51,1.1,1.27,1.5l1.17.61a2.7,2.7,0,0,1,1.53,2.41c0,1.48-1.21,2.4-3.09,2.4a3.88,3.88,0,0,1-2.18-.59,4,4,0,0,1-.4-2,.29.29,0,0,1,.49,0,2.66,2.66,0,0,0,2.25,2c1,0,1.59-.49,1.59-1.36,0-.61-.25-1.23-1.33-1.78Z" style="fill:#fff"/><path d="M96.17,6c0-1.31-.08-1.38-.89-1.51l-.36-.06c-.13-.09-.11-.42,0-.47.74,0,1.33.06,1.93.06S98.08,4,98.82,4c.15.06.17.38,0,.47l-.36.06c-.81.13-.89.21-.89,1.51v4.24c0,1.31.08,1.38.89,1.51l.36.06c.13.09.11.42,0,.47-.72,0-1.34-.06-1.93-.06s-1.19,0-1.93.06c-.15-.06-.17-.38,0-.47l.36-.06c.81-.13.89-.21.89-1.51Z" style="fill:#fff"/><path d="M104.67,5.07c0-.49,0-.49-.4-.49h-.59c-1.16,0-1.65.11-2.1,1.42a.33.33,0,0,1-.47-.09c.21-.81.42-1.76.51-2.23a.28.28,0,0,1,.34,0c0,.38.28.36,1,.36h5.26c.7,0,.83,0,1-.36a.25.25,0,0,1,.34.06,7.92,7.92,0,0,0-.19,2.22.3.3,0,0,1-.47,0c-.13-1.23-.62-1.38-1.76-1.38h-.64c-.36,0-.42,0-.42.49v5.19c0,1.31.08,1.42.89,1.51l.51.06c.13.09.11.42,0,.47-.78,0-1.5-.06-2.08-.06s-1.29,0-2.08.06c-.15-.06-.17-.38,0-.47l.51-.06c.81-.09.89-.21.89-1.51Z" style="fill:#fff"/><path d="M114.79,9.73a2.63,2.63,0,0,0-.53-1.61l-1.38-2.56c-.4-.76-.59-.93-1.08-1l-.49-.09a.32.32,0,0,1,.06-.47c.63,0,1.06.06,1.74.06s1,0,1.61-.06a.28.28,0,0,1,0,.47l-.27.06c-.42.09-.47.21-.17.8l.7,1.34c.3.57.57,1.08.85,1.57.3-.51.59-1,.91-1.57l.76-1.38c.28-.53.32-.7-.13-.76l-.4-.06A.28.28,0,0,1,117,4c.57,0,1,.06,1.44.06s.81,0,1.34-.06a.3.3,0,0,1,0,.47l-.45.09c-.59.11-.68.23-1.27,1.17l-1.17,1.89c-.68,1.08-.72,1.27-.72,1.82v1c0,1.12.08,1.23.89,1.33l.47.06c.13.09.11.42,0,.47-.83,0-1.46-.06-2-.06s-1.19,0-2,.06c-.15-.06-.17-.38,0-.47l.47-.06c.81-.09.89-.21.89-1.33Z" style="fill:#fff"/><path d="M137,8.1a4.36,4.36,0,0,1-4.6,4.41c-2.93,0-4.68-1.91-4.68-4.3a4.43,4.43,0,0,1,4.68-4.45A4.23,4.23,0,0,1,137,8.1Zm-7.59-.19c0,2,.89,4.05,3.09,4.05,1.44,0,2.82-1,2.82-3.58,0-2-1-4.07-3-4.07C130.92,4.32,129.43,5.24,129.43,7.92Z" style="fill:#fff"/><path d="M141.06,6c0-1.31-.09-1.34-.79-1.51L140,4.45c-.13-.09-.11-.42,0-.47.51,0,1.1.06,1.7.06h2.63c.83,0,1.55,0,1.82-.06,0,.23,0,1.12.09,1.93a.29.29,0,0,1-.49,0,2.64,2.64,0,0,0-.34-.91c-.32-.47-1.15-.45-1.61-.45h-.74c-.59,0-.64,0-.64.66v2.2c0,.34,0,.38.36.38h1c1,0,1.1-.15,1.25-.72l.09-.36a.32.32,0,0,1,.47,0c0,.55,0,.89,0,1.33s0,.81,0,1.36a.32.32,0,0,1-.47,0l-.09-.36c-.15-.57-.25-.72-1.25-.72h-1c-.36,0-.36.06-.36.44v1.4c0,1.31.08,1.44.89,1.51l.59.06c.13.09.11.42,0,.47-.95,0-1.57-.06-2.16-.06s-1.19,0-1.93.06c-.15-.06-.17-.38,0-.47l.36-.06c.81-.13.89-.21.89-1.51Z" style="fill:#fff"/><path d="M34.06,16.89a19.51,19.51,0,0,0,.19,2.37.37.37,0,0,1-.56,0,2.74,2.74,0,0,0-3-2.2c-1.85,0-3.68,1.25-3.68,4.18s1.85,4.52,3.88,4.52A3.36,3.36,0,0,0,34,23.63a.33.33,0,0,1,.56,0A6.34,6.34,0,0,1,33.84,26a11.61,11.61,0,0,1-2.91.45,6.59,6.59,0,0,1-3.79-1,4.57,4.57,0,0,1-2-3.83,4.73,4.73,0,0,1,1.81-3.88,6.85,6.85,0,0,1,4.2-1.25A15.93,15.93,0,0,1,34.06,16.89Z" style="fill:#fff"/><path d="M47.83,21.41a5,5,0,0,1-5.24,5c-3.34,0-5.32-2.18-5.32-4.89a5,5,0,0,1,5.32-5.06C46.06,16.48,47.83,18.78,47.83,21.41Zm-8.64-.21c0,2.22,1,4.61,3.51,4.61,1.64,0,3.21-1.12,3.21-4.07,0-2.3-1.1-4.63-3.47-4.63C40.89,17.1,39.19,18.16,39.19,21.2Z" style="fill:#fff"/><path d="M52.42,19.3c0-1.4,0-1.72-.52-1.81l-.65-.11c-.19-.07-.17-.47,0-.54,1.21-.09,2.31-.13,3.45-.13a7.48,7.48,0,0,1,2.59.37,2.59,2.59,0,0,1,1.75,2.52,2.5,2.5,0,0,1-1.79,2.46,5.32,5.32,0,0,1-2,.32.3.3,0,0,1,0-.39,2.26,2.26,0,0,0,2-2.46,2.07,2.07,0,0,0-2.35-2.2c-.88,0-.88.13-.88.73v5.79c0,1.49.09,1.59,1,1.72l.5.07c.15.11.13.47,0,.54-.91,0-1.62-.06-2.28-.06s-1.36,0-2.11.06c-.17-.06-.19-.43,0-.54l.32-.07c.93-.19,1-.24,1-1.72Z" style="fill:#fff"/><path d="M63.15,19c0-1.49-.09-1.55-.91-1.72l-.3-.06a.36.36,0,0,1,0-.54q.94.06,2,.06H67a18.38,18.38,0,0,0,2-.06c0,.26.13,1.27.24,2.2a.38.38,0,0,1-.56,0,3,3,0,0,0-.39-1C68,17.4,67,17.4,66.51,17.4h-.95c-.75,0-.78,0-.78.69v2.39c0,.39,0,.43.41.43h1c1.14,0,1.25-.17,1.42-.82l.11-.41a.36.36,0,0,1,.54,0c0,.63,0,1,0,1.51s0,.93,0,1.55a.36.36,0,0,1-.54,0l-.11-.41c-.17-.65-.28-.82-1.42-.82h-1c-.41,0-.41.06-.41.5v1.55A3.17,3.17,0,0,0,65,25.2c.19.22.58.3,1.81.3,1.38,0,2.18-.06,2.8-1.79a.37.37,0,0,1,.56.09,7.93,7.93,0,0,1-.65,2.39c-1.36,0-2.5-.06-3.66-.06H64c-.69,0-1.36,0-2.39.06-.17-.06-.19-.43,0-.54l.58-.07c.93-.11,1-.24,1-1.72Z" style="fill:#fff"/><path d="M81.72,20.1c0-2.15-.13-2.71-.93-2.78l-.69-.06a.36.36,0,0,1,0-.54c.8,0,1.29.06,1.92.06s1.1,0,1.79-.06a.36.36,0,0,1,0,.54l-.65.06c-.56.07-.73.65-.73,2.78v3.62c0,.43,0,2.18.07,2.5a.42.42,0,0,1-.45.19c-.24-.3-.67-.75-2-2.2l-3.27-3.49c-.82-.86-1.38-1.42-1.66-1.66-.09,0-.09.24-.09.9v2.84c0,2.16.13,2.71.93,2.78l.69.07a.35.35,0,0,1,0,.54c-.8,0-1.29-.06-1.92-.06s-1,0-1.79.06a.36.36,0,0,1,0-.54l.65-.07c.56-.06.73-.65.73-2.78V19c0-.71,0-1-.45-1.34a2.56,2.56,0,0,0-.8-.3l-.32-.06a.35.35,0,0,1,0-.54c.82.06,1.4.06,1.85.06a5.41,5.41,0,0,0,.86-.06,12.73,12.73,0,0,0,2.11,2.65l2,2.09c.47.47,1.72,1.83,2,2,.13,0,.13-.34.13-.86Z" style="fill:#fff"/><path d="M94.5,20.92c.69,0,.78,0,.78-.56V19c0-1.49-.09-1.57-1-1.72l-.41-.06c-.15-.11-.13-.47,0-.54.84,0,1.51.06,2.2.06s1.36,0,2.2-.06c.17.06.19.43,0,.54l-.41.06c-.93.15-1,.24-1,1.72v4.83c0,1.49.09,1.59,1,1.72l.5.07c.15.11.13.47,0,.54-.91,0-1.62-.06-2.28-.06s-1.36,0-2.2.06c-.17-.06-.19-.43,0-.54l.41-.07c.93-.15,1-.24,1-1.72v-1.7c0-.54,0-.56-.78-.56H90.71c-.73,0-.78,0-.78.56v1.7c0,1.49.09,1.62,1,1.72l.58.07c.15.11.13.47,0,.54-1,0-1.7-.06-2.37-.06s-1.36,0-2,.06c-.17-.06-.19-.43,0-.54l.24-.07c.9-.24,1-.24,1-1.72V19c0-1.49-.09-1.59-1-1.72l-.5-.06c-.15-.11-.13-.47,0-.54.93,0,1.59.06,2.28.06s1.36,0,2.11-.06c.17.06.19.43,0,.54l-.32.06c-.9.17-1,.24-1,1.72v1.31c0,.56.09.56.78.56Z" style="fill:#fff"/><path d="M104.2,22.79c-.5,0-.56,0-.73.52l-.5,1.38c-.24.69-.17.78.24.86l.58.11c.17.11.15.5-.06.54-.54,0-1.1-.06-1.7-.06s-1.12,0-1.51.06a.35.35,0,0,1,0-.54l.5-.11c.67-.15.9-.39,1.34-1.42l2.07-5a6.79,6.79,0,0,0,.56-1.81,1.89,1.89,0,0,0,.91-.82c.17-.06.3,0,.34.11s.43,1.34.93,2.65L109,24.45c.26.71.45,1,1.23,1.14l.34.07a.31.31,0,0,1-.06.54c-.56,0-1.06-.06-1.79-.06s-1.4,0-1.94.06a.31.31,0,0,1,0-.54l.43-.07c.56-.09.54-.21.28-.88l-.52-1.4c-.17-.5-.24-.52-.73-.52Zm1.7-.69c.56,0,.63,0,.39-.67l-.67-1.83a4,4,0,0,0-.32-.78h0a5,5,0,0,0-.34.73l-.78,1.92c-.24.58-.19.63.28.63Z" style="fill:#fff"/><path d="M119.93,24.19c0-1,0-1.12-1-1.29l-.69-.13a.36.36,0,0,1,0-.54c.86,0,1.81.06,2.43.06s1.31,0,1.83-.06a.38.38,0,0,1,.06.54l-.39.09c-.56.13-.65.26-.65,1.19v.6c0,.52,0,.84.34,1,.09.06.09.26,0,.3s-.69.13-1.29.24a11.6,11.6,0,0,1-2.15.26,6.24,6.24,0,0,1-4.63-1.59,4.71,4.71,0,0,1-1.34-3.27,4.81,4.81,0,0,1,1.36-3.38,6.27,6.27,0,0,1,4.76-1.7,13.51,13.51,0,0,1,2.89.43c0,.43.07,1.29.19,2.43a.34.34,0,0,1-.56,0,2.81,2.81,0,0,0-3.06-2.26c-2.26,0-3.66,1.75-3.66,4.27a4.08,4.08,0,0,0,4.24,4.44c1.14,0,1.29-.22,1.29-1.08Z" style="fill:#fff"/><path d="M126.82,19c0-1.49-.09-1.55-.91-1.72l-.3-.06a.36.36,0,0,1,0-.54q.94.06,2,.06h3.06a18.38,18.38,0,0,0,2-.06c0,.26.13,1.27.24,2.2a.38.38,0,0,1-.56,0,3,3,0,0,0-.39-1c-.34-.52-1.31-.52-1.83-.52h-.95c-.75,0-.78,0-.78.69v2.39c0,.39,0,.43.41.43h1c1.14,0,1.25-.17,1.42-.82l.11-.41a.36.36,0,0,1,.54,0c0,.63,0,1,0,1.51s0,.93,0,1.55a.36.36,0,0,1-.54,0l-.11-.41c-.17-.65-.28-.82-1.42-.82h-1c-.41,0-.41.06-.41.5v1.55a3.17,3.17,0,0,0,.24,1.55c.19.22.58.3,1.81.3,1.38,0,2.18-.06,2.8-1.79a.37.37,0,0,1,.56.09,7.93,7.93,0,0,1-.65,2.39c-1.36,0-2.5-.06-3.66-.06h-1.9c-.69,0-1.36,0-2.39.06-.17-.06-.19-.43,0-.54l.58-.07c.93-.11,1-.24,1-1.72Z" style="fill:#fff"/><path d="M145.4,20.1c0-2.15-.13-2.71-.93-2.78l-.69-.06a.36.36,0,0,1,0-.54c.8,0,1.29.06,1.92.06s1.1,0,1.79-.06a.36.36,0,0,1,0,.54l-.65.06c-.56.07-.73.65-.73,2.78v3.62c0,.43,0,2.18.07,2.5a.42.42,0,0,1-.45.19c-.24-.3-.67-.75-2-2.2l-3.27-3.49c-.82-.86-1.38-1.42-1.66-1.66-.09,0-.09.24-.09.9v2.84c0,2.16.13,2.71.93,2.78l.69.07a.35.35,0,0,1,0,.54c-.8,0-1.29-.06-1.92-.06s-1,0-1.79.06a.36.36,0,0,1,0-.54l.65-.07c.56-.06.73-.65.73-2.78V19c0-.71,0-1-.45-1.34a2.56,2.56,0,0,0-.8-.3l-.32-.06a.35.35,0,0,1,0-.54c.82.06,1.4.06,1.85.06a5.41,5.41,0,0,0,.86-.06,12.73,12.73,0,0,0,2.11,2.65l2,2.09c.47.47,1.72,1.83,2,2,.13,0,.13-.34.13-.86Z" style="fill:#fff"/></svg>