<?xml version="1.0" encoding="UTF-8"?>
<svg width="200px" height="62px" viewBox="0 0 200 62" version="1.1" xmlns="http://www.w3.org/2000/svg" xmlns:xlink="http://www.w3.org/1999/xlink">
    <!-- Generator: Sketch 47.1 (45422) - http://www.bohemiancoding.com/sketch -->
    <title>Page 1</title>
    <desc>Created with Sketch.</desc>
    <defs></defs>
    <g id="Symbols" stroke="none" stroke-width="1" fill="none" fill-rule="evenodd">
        <g id="logo-white" transform="translate(0.000000, -1.000000)" fill="#FFFFFF">
            <g id="Page-1" transform="translate(0.000000, 1.000000)">
                <polygon id="Fill-1" points="32.4506024 22.4168675 34.1855422 22.4168675 34.1855422 20.6819277 32.4506024 20.6819277"></polygon>
                <polygon id="Fill-2" points="32.4506024 37.7746988 34.1855422 37.7746988 34.1855422 24.1096386 32.4506024 24.1096386"></polygon>
                <g id="Group-25" transform="translate(0.000000, 0.028916)">
                    <path d="M37.5696386,20.653012 L39.3057831,20.653012 L39.3057831,24.0807229 L46.1166265,24.0807229 L46.1166265,25.7722892 L39.3057831,25.7722892 L39.3057831,34.3192771 C39.3057831,35.273494 40.0431325,36.0542169 40.9973494,36.0542169 L46.1166265,36.0542169 L46.1166265,37.7457831 L40.9973494,37.7457831 C39.2190361,37.7457831 37.5696386,36.3144578 37.5696386,34.3192771 L37.5696386,25.7722892 L35.0106024,25.7722892 L35.0106024,24.0807229 L37.5696386,24.0807229 L37.5696386,20.653012 Z" id="Fill-3"></path>
                    <path d="M28.8071084,29.2003614 L17.3974699,29.2003614 C17.4408434,27.9413253 17.7444578,27.0738554 18.3516867,26.596747 C18.7420482,26.249759 19.2625301,26.0328916 19.9998795,25.9027711 C20.6950602,25.7292771 21.7360241,25.6859036 23.1239759,25.6859036 C24.4685542,25.6859036 25.5095181,25.7292771 26.2480723,25.9027711 C26.9420482,26.0328916 27.5059036,26.249759 27.8962651,26.596747 C28.503494,27.0738554 28.8071084,27.9413253 28.8071084,29.2003614 M17.3974699,30.9353012 L30.7589157,30.9353012 C30.7589157,29.4172289 30.6721687,28.2883133 30.4986747,27.5509639 C30.3251807,26.8136145 30.0215663,26.163012 29.5878313,25.5991566 C29.0239759,24.9485542 28.33,24.4714458 27.4191566,24.2545783 C26.5516867,24.0377108 25.0757831,23.9075904 23.0806024,23.9075904 C21.0420482,23.9075904 19.6095181,24.0377108 18.6986747,24.2545783 C17.7878313,24.4714458 17.0938554,24.9485542 16.5733735,25.5991566 C16.0962651,26.163012 15.7926506,26.8136145 15.6625301,27.5509639 C15.4878313,28.2883133 15.4010843,29.4172289 15.3577108,30.9353012 C15.4010843,32.41 15.4878313,33.5377108 15.6625301,34.2762651 C15.7926506,35.0136145 16.0962651,35.6642169 16.5733735,36.2280723 C17.0938554,36.8786747 17.7878313,37.3557831 18.6986747,37.5726506 C19.6095181,37.8328916 21.0420482,37.9196386 23.0806024,37.9196386 C25.0757831,37.9196386 26.5516867,37.8328916 27.4191566,37.5726506 C28.33,37.3557831 29.0239759,36.8786747 29.5878313,36.2280723 C29.9348193,35.7943373 30.1950602,35.2738554 30.3685542,34.7533735 L28.33,34.7533735 C28.1998795,34.9268675 28.069759,35.1003614 27.8962651,35.2738554 C27.5059036,35.5774699 26.9420482,35.8377108 26.2480723,35.9678313 C25.5095181,36.0979518 24.4685542,36.1413253 23.1239759,36.1413253 C21.7360241,36.1413253 20.6950602,36.0979518 19.9998795,35.9678313 C19.2625301,35.8377108 18.7420482,35.5774699 18.3516867,35.2738554 C17.8312048,34.8401205 17.5275904,34.1027711 17.4408434,33.1039759 C17.3974699,32.41 17.3974699,31.6292771 17.3974699,30.9353012" id="Fill-5"></path>
                    <path d="M30.7590361,61.6503614 C47.7216867,61.6503614 61.5180723,47.8973494 61.5180723,30.9346988 C61.5180723,13.9286747 47.7216867,0.175662651 30.7590361,0.175662651 C25.1626506,0.175662651 19.913253,1.65036145 15.4012048,4.2973494 L17.0939759,7.24674699 C21.1277108,4.90457831 25.7698795,3.60337349 30.7590361,3.60337349 C45.8566265,3.60337349 58.0903614,15.8371084 58.0903614,30.9346988 C58.0903614,45.9889157 45.8566265,58.2660241 30.7590361,58.2660241 C15.6614458,58.2660241 3.42771084,45.9889157 3.42771084,30.9346988 L0,30.9346988 C0,47.8973494 13.7963855,61.6503614 30.7590361,61.6503614" id="Fill-7"></path>
                    <path d="M30.7590361,54.8385542 C39.6096386,54.8385542 47.3313253,50.0240964 51.453012,42.8650602 L48.5024096,41.173494 C44.9457831,47.2903614 38.3506024,51.4120482 30.7590361,51.4120482 C19.4361446,51.4120482 10.2819277,42.2144578 10.2819277,30.9349398 C10.2819277,19.6120482 19.4361446,10.4144578 30.7590361,10.4144578 C38.3506024,10.4144578 44.9457831,14.5361446 48.5024096,20.653012 L51.453012,18.9614458 C47.3313253,11.8024096 39.6096386,6.98674699 30.7590361,6.98674699 C17.5710843,6.98674699 6.85542169,17.7024096 6.85542169,30.9349398 C6.85542169,44.1228916 17.5710843,54.8385542 30.7590361,54.8385542" id="Fill-10"></path>
                    <path d="M83.9410843,33.0818072 L85.7109639,33.0818072 C85.6651807,34.3227711 85.5916867,35.1757831 85.4916867,35.643253 C85.2712048,36.656506 84.5940964,37.2806024 83.4603614,37.5131325 C82.5398795,37.6998795 80.9037349,37.7938554 78.5495181,37.7938554 C75.4940964,37.7938554 73.430241,37.6866265 72.356747,37.4733735 C71.3362651,37.2661446 70.6495181,36.7312048 70.296506,35.8673494 C69.9422892,35.0046988 69.7663855,33.4287952 69.7663855,31.1408434 C69.7663855,28.9601205 69.9001205,27.376988 70.1663855,26.390241 C70.4868675,25.2227711 71.309759,24.543253 72.6374699,24.3492771 C73.916988,24.1553012 75.7940964,24.0589157 78.2687952,24.0589157 C80.6290361,24.0589157 82.3206024,24.1757831 83.3398795,24.4095181 C83.8471084,24.5227711 84.2856627,24.7444578 84.656747,25.0745783 C85.0254217,25.4046988 85.2615663,25.7866265 85.3615663,26.2191566 C85.4615663,26.6263855 85.5181928,27.4239759 85.5314458,28.6107229 L83.8410843,28.6107229 C83.8338554,28.376988 83.830241,28.2203614 83.830241,28.1408434 C83.830241,27.4866265 83.7675904,27.0215663 83.6410843,26.7444578 C83.5145783,26.4685542 83.2663855,26.256506 82.9001205,26.1095181 C82.2266265,25.8360241 80.6531325,25.6998795 78.1784337,25.6998795 C76.3844578,25.6998795 75.0374699,25.7480723 74.1374699,25.8444578 C73.2374699,25.9408434 72.6507229,26.0962651 72.3772289,26.3095181 C72.116988,26.5239759 71.9254217,26.9637349 71.8013253,27.63 C71.6784337,28.2974699 71.616988,29.2239759 71.616988,30.4107229 C71.616988,30.9709639 71.6398795,31.6950602 71.6868675,32.5818072 C71.7326506,33.4685542 71.7808434,34.0793976 71.8266265,34.4119277 C71.9001205,34.9396386 72.0687952,35.3215663 72.3326506,35.5577108 C72.5953012,35.7950602 73.0109639,35.9396386 73.5772289,35.9926506 C74.6109639,36.0998795 76.0880723,36.1528916 78.0085542,36.1528916 C78.5953012,36.1528916 79.3639759,36.1348193 80.3145783,36.0974699 C81.2639759,36.0613253 81.87,36.0263855 82.130241,35.9926506 C82.6362651,35.9263855 83.0133735,35.8239759 83.2603614,35.6878313 C83.5073494,35.5516867 83.6772289,35.3456627 83.7712048,35.0721687 C83.856747,34.8324096 83.9145783,34.1685542 83.9410843,33.0818072" id="Fill-12"></path>
                    <polygon id="Fill-14" points="87.5939759 37.753012 89.0939759 37.753012 89.0939759 24.0987952 87.5939759 24.0987952"></polygon>
                    <path d="M91.0795181,25.8795181 L92.5807229,25.8795181 L92.5807229,24.0987952 L91.0795181,24.0987952 L91.0795181,25.8795181 Z M91.0795181,37.753012 L92.5807229,37.753012 L92.5807229,28.260241 L91.0795181,28.260241 L91.0795181,37.753012 Z" id="Fill-16"></path>
                    <path d="M94.8021687,28.260241 L96.313012,28.260241 L96.313012,29.5108434 C96.786506,28.9373494 97.2636145,28.5650602 97.7431325,28.3951807 C98.2238554,28.2253012 99.0443373,28.1409639 100.204578,28.1409639 C101.758795,28.1409639 102.873253,28.2542169 103.550361,28.4807229 C104.22747,28.7072289 104.752771,29.1445783 105.126265,29.7915663 C105.432289,29.1710843 105.905783,28.7409639 106.546747,28.5 C107.186506,28.260241 108.186506,28.1409639 109.547952,28.1409639 C110.841928,28.1409639 111.809398,28.2240964 112.452771,28.3903614 C113.096145,28.5578313 113.619036,28.8578313 114.019036,29.2903614 C114.32506,29.6373494 114.52506,30.026506 114.619036,30.4566265 C114.713012,30.886747 114.758795,31.6554217 114.758795,32.7614458 L114.758795,37.753012 L113.258795,37.753012 L113.258795,32.4120482 C113.258795,31.2445783 113.085301,30.4915663 112.738313,30.1506024 C112.272048,29.6903614 111.204578,29.4614458 109.537108,29.4614458 C108.584096,29.4614458 107.856386,29.5240964 107.356386,29.6506024 C106.856386,29.7771084 106.476867,29.9915663 106.216627,30.2915663 C105.956386,30.5975904 105.779277,31.0060241 105.686506,31.5168675 C105.59253,32.026506 105.545542,32.8590361 105.545542,34.0120482 L105.545542,37.753012 L104.045542,37.753012 L104.045542,32.4120482 C104.045542,31.7385542 104.009398,31.2409639 103.935904,30.9216867 C103.86241,30.6012048 103.72506,30.3481928 103.52506,30.1614458 C103.038313,29.6939759 101.964819,29.4614458 100.304578,29.4614458 C99.3443373,29.4614458 98.6057831,29.5253012 98.0889157,29.6554217 C97.5720482,29.7855422 97.173253,30.0072289 96.8937349,30.3216867 C96.6527711,30.5951807 96.4949398,30.9686747 96.4178313,31.4409639 C96.3419277,31.9156627 96.3033735,32.7722892 96.3033735,34.0120482 L96.3033735,37.753012 L94.8021687,37.753012 L94.8021687,28.260241" id="Fill-17"></path>
                    <path d="M117.970241,31.1110843 L116.41,31.1110843 C116.396747,30.9387952 116.390723,30.8014458 116.390723,30.7014458 C116.390723,29.7074699 116.764217,29.0303614 117.51,28.6713253 C118.256988,28.3110843 119.658193,28.1303614 121.71241,28.1303614 C123.325663,28.1303614 124.485904,28.2038554 125.193133,28.3508434 C125.899157,28.4978313 126.453373,28.7773494 126.853373,29.1906024 C127.187108,29.5243373 127.403976,29.9183133 127.503976,30.3713253 C127.603976,30.8255422 127.653373,31.6183133 127.653373,32.7520482 L127.653373,37.753253 L126.163012,37.753253 L126.193133,36.6436145 L126.113614,36.6436145 C125.74012,37.1640964 125.290723,37.4990361 124.767831,37.6484337 C124.24494,37.7990361 123.255783,37.8737349 121.801566,37.8737349 C120.141325,37.8737349 118.987108,37.8339759 118.341325,37.753253 C117.694337,37.6737349 117.203976,37.5074699 116.870241,37.253253 C116.536506,37.013494 116.305181,36.726747 116.17506,36.393012 C116.04494,36.0604819 115.97988,35.593012 115.97988,34.993012 C115.97988,34.2592771 116.078675,33.6954217 116.27506,33.3026506 C116.471446,32.9086747 116.803976,32.6159036 117.270241,32.4219277 C117.77747,32.2014458 118.960602,32.0918072 120.822048,32.0918072 C122.769036,32.0918072 124.04253,32.1508434 124.64253,32.266506 C125.24253,32.3833735 125.706386,32.6653012 126.032892,33.1122892 L126.163012,33.1122892 L126.163012,32.0918072 C126.163012,31.2580723 126.013614,30.6580723 125.713614,30.2918072 C125.446145,29.9653012 125.041325,29.7424096 124.497952,29.626747 C123.954578,29.5098795 123.065422,29.4508434 121.831687,29.4508434 C120.211205,29.4508434 119.163012,29.5460241 118.685904,29.7363855 C118.208795,29.926747 117.970241,30.3412048 117.970241,30.9821687 L117.970241,31.1110843 Z M121.81241,33.4219277 C120.57747,33.4219277 119.714819,33.4436145 119.220843,33.486988 C118.726867,33.5315663 118.37747,33.6122892 118.170241,33.7327711 C117.77747,33.966506 117.581084,34.3966265 117.581084,35.0231325 C117.581084,35.6436145 117.813614,36.0628916 118.281084,36.2833735 C118.660602,36.4628916 119.941325,36.553253 122.122048,36.553253 C123.716024,36.553253 124.769036,36.4496386 125.283494,36.2436145 C125.796747,36.0363855 126.053373,35.6171084 126.053373,34.9833735 C126.053373,34.3689157 125.766627,33.9556627 125.193133,33.7424096 C124.619639,33.5291566 123.491928,33.4219277 121.81241,33.4219277 L121.81241,33.4219277 Z" id="Fill-18"></path>
                    <path d="M130.459036,25.9093976 L131.960241,25.9093976 L131.960241,28.26 L138.60241,28.26 L138.60241,29.5407229 L131.960241,29.5407229 L131.960241,33.6624096 C131.973494,34.5624096 131.996386,35.113012 132.03012,35.313012 C132.063855,35.513012 132.160241,35.713012 132.320482,35.913012 C132.507229,36.146747 132.786747,36.3118072 133.160241,36.4081928 C133.533735,36.5045783 134.080723,36.5527711 134.801205,36.5527711 C135.474699,36.5527711 135.96506,36.506988 136.271084,36.413012 C136.578313,36.3190361 136.818072,36.1491566 136.991566,35.9021687 C137.104819,35.7298795 137.179518,35.5226506 137.216867,35.2828916 C137.253012,35.0419277 137.272289,34.6359036 137.272289,34.0624096 L137.272289,33.4624096 L138.762651,33.4624096 L138.762651,34.0624096 C138.762651,34.7889157 138.726506,35.3407229 138.657831,35.7178313 C138.586747,36.0949398 138.455422,36.4262651 138.262651,36.713012 C137.981928,37.1262651 137.56506,37.4226506 137.012048,37.6033735 C136.457831,37.7828916 135.680723,37.873253 134.680723,37.873253 C133.654217,37.873253 132.851807,37.7901205 132.275904,37.6226506 C131.698795,37.4563855 131.26988,37.1828916 130.990361,36.8033735 C130.783133,36.5226506 130.643373,36.199759 130.56988,35.8322892 C130.496386,35.4660241 130.459036,34.9093976 130.459036,34.1624096 L130.459036,29.5407229 L128.128916,29.5407229 L128.128916,28.26 L130.459036,28.26 L130.459036,25.9093976" id="Fill-19"></path>
                    <path d="M150.385542,34.8231325 L151.956627,34.8231325 C151.93012,35.9568675 151.53012,36.7484337 150.756627,37.1990361 C149.981928,37.6484337 148.63494,37.8737349 146.714458,37.8737349 C145.127711,37.8737349 143.921687,37.8122892 143.098795,37.6881928 C142.274699,37.5653012 141.653012,37.3568675 141.23253,37.0640964 C140.272289,36.3833735 139.792771,35.04 139.792771,33.0327711 C139.792771,31.6255422 139.996386,30.5677108 140.40241,29.8616867 C140.789157,29.1881928 141.348193,28.7327711 142.078313,28.4954217 C142.808434,28.2592771 144.027711,28.1412048 145.73494,28.1412048 C147.368675,28.1412048 148.549398,28.2279518 149.275904,28.400241 C150.00241,28.5737349 150.581928,28.9074699 151.015663,29.4014458 C151.375904,29.8146988 151.622892,30.2954217 151.756627,30.8412048 C151.890361,31.3881928 151.962651,32.2219277 151.977108,33.3424096 L141.403614,33.3424096 C141.443373,34.5231325 141.677108,35.3327711 142.103614,35.7725301 C142.390361,36.0737349 142.848193,36.2785542 143.479518,36.3881928 C144.108434,36.4978313 145.13494,36.553253 146.554217,36.553253 C147.628916,36.553253 148.415663,36.5038554 148.915663,36.4038554 C149.415663,36.3038554 149.789157,36.1195181 150.036145,35.853253 C150.222892,35.6460241 150.339759,35.3026506 150.385542,34.8231325 M150.315663,32.0616867 C150.309639,31.1351807 150.062651,30.4881928 149.575904,30.1219277 C149.255422,29.8749398 148.807229,29.7026506 148.23012,29.6062651 C147.653012,29.5098795 146.808434,29.4616867 145.693976,29.4616867 C144.720482,29.4616867 143.979518,29.5062651 143.468675,29.5966265 C142.959036,29.6857831 142.560241,29.8448193 142.273494,30.0713253 C141.8,30.4375904 141.526506,31.1014458 141.453012,32.0616867 L150.315663,32.0616867" id="Fill-20"></path>
                    <polygon id="Fill-21" points="153.038554 33.7927711 161.071084 33.7927711 161.071084 32.0216867 153.038554 32.0216867"></polygon>
                    <polygon id="Fill-22" points="162.091446 24.0986747 163.911928 24.0986747 163.911928 29.9709639 166.283012 29.9709639 175.136024 24.0986747 178.326386 24.0986747 168.173373 30.7613253 178.856506 37.7528916 175.636024 37.7528916 166.283012 31.5709639 163.911928 31.5709639 163.911928 37.7528916 162.091446 37.7528916"></polygon>
                    <polygon id="Fill-23" points="179.746988 37.753012 181.56747 37.753012 181.56747 24.0987952 179.746988 24.0987952"></polygon>
                    <path d="M197.513012,33.0818072 L199.282892,33.0818072 C199.237108,34.3227711 199.163614,35.1757831 199.063614,35.643253 C198.843133,36.656506 198.166024,37.2806024 197.032289,37.5131325 C196.111807,37.6998795 194.475663,37.7938554 192.121446,37.7938554 C189.066024,37.7938554 187.003373,37.6866265 185.928675,37.4733735 C184.908193,37.2661446 184.221446,36.7312048 183.868434,35.8673494 C183.514217,35.0046988 183.338313,33.4287952 183.338313,31.1408434 C183.338313,28.9601205 183.472048,27.376988 183.738313,26.390241 C184.058795,25.2227711 184.881687,24.543253 186.209398,24.3492771 C187.488916,24.1553012 189.366024,24.0589157 191.840723,24.0589157 C194.202169,24.0589157 195.89253,24.1757831 196.913012,24.4095181 C197.419036,24.5227711 197.85759,24.7444578 198.228675,25.0745783 C198.597349,25.4046988 198.833494,25.7866265 198.933494,26.2191566 C199.033494,26.6263855 199.09012,27.4239759 199.103373,28.6107229 L197.413012,28.6107229 C197.405783,28.376988 197.402169,28.2203614 197.402169,28.1408434 C197.402169,27.4866265 197.339518,27.0215663 197.213012,26.7444578 C197.086506,26.4685542 196.838313,26.256506 196.472048,26.1095181 C195.798554,25.8360241 194.22506,25.6998795 191.750361,25.6998795 C189.956386,25.6998795 188.609398,25.7480723 187.709398,25.8444578 C186.809398,25.9408434 186.222651,26.0962651 185.949157,26.3095181 C185.688916,26.5239759 185.497349,26.9637349 185.373253,27.63 C185.250361,28.2974699 185.188916,29.2239759 185.188916,30.4107229 C185.188916,30.9709639 185.211807,31.6950602 185.258795,32.5818072 C185.305783,33.4685542 185.352771,34.0793976 185.398554,34.4119277 C185.472048,34.9396386 185.640723,35.3215663 185.904578,35.5577108 C186.167229,35.7950602 186.582892,35.9396386 187.149157,35.9926506 C188.182892,36.0998795 189.66,36.1528916 191.580482,36.1528916 C192.167229,36.1528916 192.935904,36.1348193 193.886506,36.0974699 C194.837108,36.0613253 195.441928,36.0263855 195.702169,35.9926506 C196.208193,35.9263855 196.586506,35.8239759 196.832289,35.6878313 C197.079277,35.5516867 197.249157,35.3456627 197.343133,35.0721687 C197.428675,34.8324096 197.486506,34.1685542 197.513012,33.0818072" id="Fill-24"></path>
                </g>
            </g>
        </g>
    </g>
</svg>